<?xml version="1.0" standalone="no"?>
<!DOCTYPE svg PUBLIC "-//W3C//DTD SVG 20010904//EN"
 "http://www.w3.org/TR/2001/REC-SVG-20010904/DTD/svg10.dtd">
<svg version="1.0" xmlns="http://www.w3.org/2000/svg"
 width="260.000000pt" height="260.000000pt" viewBox="0 0 260.000000 260.000000"
 preserveAspectRatio="xMidYMid meet">
<metadata>
Created by potrace 1.11, written by Peter Selinger 2001-2013
</metadata>
<g transform="translate(0.000000,260.000000) scale(0.100000,-0.100000)"
fill="#000000" stroke="none">
<path d="M282 2098 c-17 -17 -17 -324 0 -334 7 -5 71 -8 142 -9 107 -1 133 2
146 15 14 14 16 41 15 166 0 82 -4 155 -8 162 -11 17 -278 17 -295 0z"/>
<path d="M771 2092 c-15 -28 -13 -309 3 -324 10 -11 167 -13 777 -13 420 0
770 4 777 8 17 11 17 318 0 335 -9 9 -196 12 -780 12 -728 0 -768 -1 -777 -18z"/>
<path d="M390 1472 c-68 -2 -107 -7 -112 -15 -10 -16 -10 -309 1 -325 11 -17
277 -20 294 -3 15 15 18 318 3 330 -16 13 -68 16 -186 13z"/>
<path d="M950 1469 c-102 -3 -186 -6 -187 -7 -1 -1 -2 -74 -2 -161 0 -127 2
-161 14 -171 22 -19 1544 -17 1556 1 11 17 12 310 1 326 -6 10 -144 13 -602
15 -327 2 -678 0 -780 -3z"/>
<path d="M290 828 c-19 -7 -20 -17 -20 -166 0 -109 4 -162 12 -170 8 -8 56
-12 150 -12 121 0 138 2 146 18 10 20 10 317 -1 328 -9 10 -262 11 -287 2z"/>
<path d="M794 831 c-10 -2 -22 -8 -25 -13 -12 -18 -9 -311 3 -325 15 -18 1538
-19 1556 -1 15 15 17 305 2 328 -7 12 -114 14 -763 15 -414 0 -762 -2 -773 -4z"/>
</g>
</svg>
